# xmcd
# 
# Track frame offsets:
#     150
#     12192
#     21785
#     32280
#     42622
#     51465
#     60907
#     67277
#     79420
#     94112
#     102207
#     114422
#     118167
#     124912
#     128655
#     131875
#     134867
#     135500
#     135980
#     136647
#     139792
#     143535
#     144165
#     144722
#     145315
#     152210
#     155802
#     159995
#     163440
#     163920
#     164475
#     164920
#     166562
#     170080
#     174725
#     175285
#     175772
#     176552
#     181607
#     185052
#     188870
#     192462
#     193117
#     193860
#     197460
#     202297
#     215797
#     216432
#     217407
#     220467
#     223767
#     235685
#     259290
#     276157
#     291452
# 
# Disc length: 4259
# 
# Revision: 3
# Processed by: cddbd v1.5.2PL0 Copyright (c) Steve Scherf et al.
# Submitted via: fre:ac v1.0.31
# 
DISCID=8110a137
DTITLE=KONAMI - ときめきメモリアル2 オリジナル・ゲーム・サントラ vol.2 DISC2
DYEAR=1999
DGENRE=Game
TTITLE0=幼少の思い出
TTITLE1=本当の気持ち
TTITLE2=サイクリング・ゴーゴー
TTITLE3=突然の別れ
TTITLE4=云えない悩み
TTITLE5=甘いひととき
TTITLE6=うれしい瞬間
TTITLE7=幸せなひととき
TTITLE8=ピーチの女王
TTITLE9=対決の予感
TTITLE10=番長との戦い
TTITLE11=番長戦・勝利ジングル
TTITLE12=番長戦・敗北ジングル
TTITLE13=朝の競技場前　～ヨハン・シュトラウス：ラデツキー行進曲 より
TTITLE14=説明　～ヨハン・シュトラウスII：観光列車 より
TTITLE15=競技中　～ヨハン・シュトラウスII：狩りのポルカ より
TTITLE16=最上位ジングル
TTITLE17=中間位ジングル
TTITLE18=最下位ジングル
TTITLE19=説明　～ベートーベン：トルコ行進曲 より
TTITLE20=競技中　～ヨゼフ・シュトラウス：おしゃべりなかわいい口
TTITLE21=最上位ジングル
TTITLE22=中間位ジングル
TTITLE23=最下位ジングル
TTITLE24=昼休み　～エルガー：愛のあいさつ より
TTITLE25=説明　～民謡(南北戦争の頃)：ジョニーの凱旋 より
TTITLE26=作戦配備　～ベートーベン：イギリス「フランス軍の太鼓とラッパ」 より
TTITLE27=競技中　～ホルスト：惑星「火星」 より
TTITLE28=勝利ジングル
TTITLE29=引き分けジングル
TTITLE30=敗北ジングル
TTITLE31=説明
TTITLE32=作戦配備
TTITLE33=競技中
TTITLE34=勝利ジングル
TTITLE35=引き分けジングル
TTITLE36=敗北ジングル
TTITLE37=体育祭終了後　～黒人霊歌：家路 より
TTITLE38=野球部・バレー部／クラブ練習試合&全国大会　～E.E.マッコイ：ライツアウト より
TTITLE39=テニス部・陸上部／クラブ練習試合&全国大会　～ヨハン・シュトラウスII：トリッチ・トラッチ・ポルカ より
TTITLE40=剣道部／クラブ練習試合&全国大会　～ワーグナー：タンホイザー より
TTITLE41=理性はどこに？　～のぞきシーン（ラッキー！）
TTITLE42=自業自得　～のぞきシーン（ガーン）
TTITLE43=タイトル
TTITLE44=ステージ
TTITLE45=ボス戦
TTITLE46=ゲームクリアジングル
TTITLE47=ゲームオーバージングル
TTITLE48=エンディング
TTITLE49=ネームエントリー
TTITLE50=卒業式
TTITLE51=告白
TTITLE52=告白　～きらめき高校にて
TTITLE53=回想　～きらめき高校にて
TTITLE54=野田順子／あなたに会えて　～ハッピーエンディング
EXTD=
EXTT0=
EXTT1=
EXTT2=
EXTT3=
EXTT4=
EXTT5=
EXTT6=
EXTT7=
EXTT8=
EXTT9=
EXTT10=
EXTT11=
EXTT12=
EXTT13=
EXTT14=
EXTT15=
EXTT16=
EXTT17=
EXTT18=
EXTT19=
EXTT20=
EXTT21=
EXTT22=
EXTT23=
EXTT24=
EXTT25=
EXTT26=
EXTT27=
EXTT28=
EXTT29=
EXTT30=
EXTT31=
EXTT32=
EXTT33=
EXTT34=
EXTT35=
EXTT36=
EXTT37=
EXTT38=
EXTT39=
EXTT40=
EXTT41=
EXTT42=
EXTT43=
EXTT44=
EXTT45=
EXTT46=
EXTT47=
EXTT48=
EXTT49=
EXTT50=
EXTT51=
EXTT52=
EXTT53=
EXTT54=
PLAYORDER=
